<svg xmlns="http://www.w3.org/2000/svg" viewBox="0 0 1108.41 282.28">
    <g id="Layer_2" data-name="Layer 2">
        <g id="Layer_1-2" data-name="Layer 1">
            <path d="M41.56,213.84c3.09,3.86,6.3,7.63,9.24,11.6,7,9.38,30.4,7.53,37.17-5,3-5.57,2.64-9.85-1.62-14-18.62-18-23.63-42.34-13.4-66.45,3.64-8.58,7.91-16.89,11.9-25.32.57-1.21,1.21-2.38,1.69-3.62,5-12.78-6.41-40.53-18.91-46-11.4-5-20.24.42-21.43,12.85-.8,8.24-2.63,16.38-3.38,24.63a162.23,162.23,0,0,0-.59,22.37c.43,9,1.72,17.89,2.65,26.84.45,4.44-1.57,7.62-4.16,11.22-7,9.69-13.18,20-19.72,30-1.19,1.83-2.54,3.55-3.82,5.32l-2.07-.38c-.38-5.65-1.52-11.38-.93-16.93.78-7.22,2-14.67,4.67-21.35,7.63-19,11.34-39,16.1-58.7,2.13-8.84,6.15-17.22,8.62-26A145.43,145.43,0,0,0,48.11,52c.31-2.7-1.64-6-3.36-8.51C40.12,36.82,35.21,30.32,30.1,24a17.26,17.26,0,0,0-6.6-5c-5.23-2.11-10.76-3.5-16.11-5.34C4.87,12.78,2.46,11.55,0,10.48L.23,8.82A39.14,39.14,0,0,1,6.11,7.67,107.63,107.63,0,0,0,36,2.36c19.21-6.48,36.91.57,46.51,18.94,10.13,19.39,22.89,36.61,37.35,52.89,12.8,14.41,22.26,31.16,25.71,50.17s3.29,38.13-2.25,56.94c-5,16.93-7.7,34.11-4.69,51.8,1.25,7.34,3.32,14.19,8.41,20,3.27,3.71,2.17,6.74-2.67,8a14.83,14.83,0,0,1-5.9.19c-3.27-.54-6.47-1.54-9.72-2.27-9.16-2.06-11.59-.73-16.13,7.38a13.77,13.77,0,0,1-6.23,5.86c-8.67,3.39-17.61,6.06-26.41,9.15-5.28,1.85-10.09.95-13.78-3-1.69-1.81-3.18-5.16-2.67-7.3s3.37-4.45,5.7-5.27c7.51-2.62,15.26-4.55,22.89-6.84a11.14,11.14,0,0,0,3.52-1.86c2.93-2.28,2.68-5-.86-5.76-8-1.74-16-3.22-24.06-4.3-4.62-.62-8.36,1.89-11.2,5.46-3.37,4.24-7.88,5.69-13.07,6.35-8.22,1-16.41,2.42-24.56,3.94-4.17.77-8.19,1.11-11-2.52-1.49-1.92-3.23-5.09-2.57-6.84.79-2.11,3.82-4.21,6.21-4.7,4.35-.89,9-.46,13.44-.82,5.81-.47,11.66-.85,17.39-1.86,7.22-1.27,8.68-5.14,5-11.41-2.78-4.73-5.43-9.54-7.91-14.43-.93-1.85-1.22-4-1.8-6.05ZM55.75,9.69l-5.29,4.65c2.08,1.27,4.09,3.3,6.29,3.56,1.64.19,3.54-1.94,5.32-3Z"/>
            <path fill="#DC2626" d="M1019.64,250.46H987.08V62c8.83,0,17.69-1.1,26,.49,3.8.72,7.7,6.25,9.65,10.48,13.62,29.62,26.73,59.48,40,89.26,1,2.2,1.63,4.76,3.18,6.47,1.92,2.11,4.63,3.51,7,5.22,1-2.36,2.86-4.69,3-7.1.39-7.63.17-15.3.17-23,0-26.55,0-53.1,0-80.79h32.28v188c-8.85,0-17.66.74-26.23-.39-3.18-.42-6.9-4.72-8.47-8.13-14.11-30.73-27.8-61.66-41.62-92.53-.82-1.84-1.29-4-2.63-5.39-2-2-4.6-3.41-7-5.07-1,2.42-2.73,4.82-2.76,7.25-.24,16.52-.11,33-.11,49.55C1019.65,214.05,1019.64,231.7,1019.64,250.46Z"/>
            <path fill="#DC2626" d="M583.3,173.48V63h32.59V251.19c-8.94,0-17.43.92-25.55-.42-3.59-.59-7.66-5.19-9.39-8.94-13.64-29.61-26.75-59.47-40.05-89.24-1.47-3.3-2.69-6.81-4.73-9.74-1.15-1.65-3.74-2.3-5.67-3.4-1.09,1.93-3,3.8-3.1,5.79-.42,6.41-.23,12.87-.23,19.32,0,28.14,0,56.29,0,86.52-9.86,0-18.95.46-27.92-.34-2-.18-5.28-4.71-5.29-7.24-.3-58-.23-116-.15-174,0-1.89.36-4.27,1.5-5.6,5.05-5.85,30.57-1.26,33.9,6.12,14.24,31.55,28.27,63.2,42.6,94.71,1.74,3.83,4.84,7,7.31,10.53Z"/>
            <path fill="#DC2626" d="M811.85,62.05c0,45.42,0,88.47,0,131.52a65,65,0,0,0,1.21,14.37c2.16,9.31,8.23,14.51,18,14.71s16.29-4.58,18.94-13.69c1.43-4.91,1.59-10.31,1.6-15.48.12-43,.07-86.09.07-130.28h34.81a70.34,70.34,0,0,1,1.08,8.73c.23,42.3.22,84.59.6,126.88.2,21.19-4.76,40.25-25.9,48.92-23.75,9.76-48.13,10.1-70.23-5.51-11.71-8.28-16.19-21-16.28-34.88-.28-45.11,0-90.23-.22-135.34,0-6.94,1.72-10.53,9.46-10.06C793.42,62.43,801.81,62.05,811.85,62.05Z"/>
            <path fill="#DC2626" d="M287,250.73H249.66V60.1c27.77,1.95,53.39,2.37,78.54,6,15.33,2.23,26.23,13.61,31.74,28.65,7.6,20.78,7.87,41.94.14,62.56-8.67,23.15-28.9,29.65-51,32.42-22.62,2.85-22.55,2.76-22.14,25.78C287.17,226.72,287,237.93,287,250.73Zm.48-157.79c0,16.62,0,32.62,0,48.62a46.9,46.9,0,0,0,.15,7.22c1.48,9.32,7.76,13.24,17.2,10.94,16.85-4.1,25.83-22.43,21.54-44C322.94,98.48,309.29,90.07,287.48,92.94Z"/>
            <path fill="#DC2626" d="M742.21,92.21c-4.62-.59-7.71-1.11-10.83-1.38-23.75-2-42.67,9.2-46.53,32.53a261,261,0,0,0-2,65.73c1.94,21.12,15.51,31.28,35.34,31.68V177.15l-9.71-2.41v-19.9H749c0,30.41.22,60.43-.42,90.43-.05,2.45-5.66,6.14-9.2,6.94-43,9.64-79.66-11.26-92.17-53.52-10.3-34.8-9-69.23,8.31-102.06C671.09,67,701.57,52.86,733.81,61c3.35.85,7.38,5.62,8,9.14C743.1,77.07,742.21,84.37,742.21,92.21Z"/>
            <path fill="#DC2626" d="M468.25,222.12v28.33H385.43V61.76h34.14c11.68,0,23.4.61,35-.15,9.67-.63,13.2,2.92,12.26,12.33-.52,5.12-.09,10.34-.09,17.68-12.43,0-23.93.32-35.4-.12-7.81-.3-11.32,2.61-10.53,10.47.16,1.59-.06,3.22,0,4.83.41,10.38-2.77,23.59,2.44,30.24,4.1,5.23,18.53,2.75,28.39,3,6.12.14,8.89,2.23,8.67,8.47-.23,6.74,0,13.48,0,21.71-11.12,0-20.68.23-30.23-.08-6.62-.22-9.53,2.15-9.3,9.07q.53,16.91,0,33.82c-.21,6.75,2.34,9.39,9.13,9.21C442.26,221.89,454.66,222.12,468.25,222.12Z"/>
            <path fill="#DC2626" d="M921.07,64.89c1.91-1.62,2.19-2.06,2.52-2.11C957.06,58,957,58,957.07,91.33q.06,72.48.17,145v14h-40Q919.19,156.92,921.07,64.89Z"/>
        </g>
    </g>
</svg>